<svg width="200" height="35" viewBox="0 0 200 35" fill="none" xmlns="http://www.w3.org/2000/svg">
<path d="M101.506 33.5015L101.934 33.5015C103.53 33.5015 104.824 32.2076 104.824 30.6114L104.877 14.1811L104.877 11.077L104.887 10.7607C104.94 9.14677 106.264 7.86583 107.878 7.86583C109.652 7.86583 111.091 6.42761 111.091 4.65348L111.091 3.68288C111.091 2.44613 110.088 1.44354 108.851 1.44354L107.878 1.44354C106.047 1.44354 104.385 2.56626 103.718 4.27218L103.444 4.78893C103.015 5.6003 102.329 6.24722 101.495 6.62938L101.427 6.65692C99.6282 7.3878 98.4519 9.13559 98.4519 11.077L98.4519 30.6114C98.4519 32.2076 99.7458 33.5015 101.342 33.5015L101.506 33.5015Z" fill="#131313"/>
<path d="M165.488 27.0465V13.9968C165.488 11.5221 166.699 9.20394 168.73 7.79045L168.868 7.66845C169.624 6.99898 170.107 6.07373 170.223 5.0703C170.462 3.00287 172.212 1.44287 174.293 1.44287H175.215H175.477C177.244 1.44287 178.677 2.87577 178.677 4.64333V4.7108C178.677 6.43241 180.088 7.81976 181.81 7.79045L182.424 7.79962C184.014 7.82336 185.283 6.47951 185.168 4.8934C185.153 4.69176 185.161 4.48911 185.192 4.28925L185.201 4.2264C185.445 2.62557 186.84 1.44287 188.459 1.44287L189.482 1.50503C191.157 1.6068 192.543 2.84439 192.832 4.49677C192.902 4.89383 193.037 5.27649 193.233 5.629L193.256 5.67053C193.52 6.14691 193.881 6.56275 194.316 6.89137L195.215 7.57159C197.117 9.14245 198.237 11.4663 198.281 13.9327L198.571 30.1936C198.571 32.0148 197.095 33.5008 195.274 33.5008C193.453 33.5008 191.977 32.0148 191.977 30.1936V27.0465V14.1914V11.7357C191.977 11.3484 191.914 10.9636 191.792 10.5961L191.716 10.3681C191.295 9.10639 190.149 8.22804 188.821 8.15073L188.577 8.13651C186.843 8.03556 185.382 9.41429 185.382 11.1509V14.1914V30.1936C185.382 32.0201 183.901 33.5008 182.075 33.5008H181.92C180.129 33.5008 178.677 32.0491 178.677 30.2584V30.1936V14.1914V11.1509C178.677 9.38336 177.244 7.95047 175.477 7.95047H175.215C173.628 7.95047 172.288 9.12882 172.085 10.7026L172.027 11.1509V14.1914V30.1936C172.027 32.0201 170.547 33.5008 168.72 33.5008H168.62C166.89 33.5008 165.488 32.0983 165.488 30.3683V30.1936V27.0465Z" fill="#131313"/>
<path d="M136.439 4.29841V4.69667C136.439 6.49369 134.983 7.95047 133.186 7.95047H133.112C131.364 7.95047 129.948 9.36703 129.948 11.1144V24.0594L129.963 24.2692C130.077 25.8938 131.429 27.1532 133.057 27.1532L139.088 27.0058C139.43 26.9974 139.768 26.939 140.093 26.8324C141.383 26.4094 142.311 25.2795 142.477 23.9327L142.876 20.6776V7.37952V5.27404C142.876 4.07292 143.497 2.95693 144.517 2.32263L144.703 2.20656C145.48 1.72374 146.433 1.61904 147.296 1.92189C148.505 2.34621 149.313 3.48756 149.313 4.76858V24.0594C149.176 25.733 147.812 27.0439 146.134 27.1115C145.459 27.1387 144.805 27.3729 144.266 27.7794C143.637 28.2525 143.193 28.9339 143.015 29.6999L142.95 29.9806C142.901 30.1931 142.876 30.4105 142.876 30.6286C142.876 32.2149 141.59 33.5008 140.004 33.5008H139.712H133.057H132.071C130.746 33.5008 129.577 32.6323 129.195 31.3636L129.161 31.2575C128.722 29.8873 127.73 28.7632 126.425 28.1578L126.379 28.1386C124.693 27.4302 123.516 25.874 123.292 24.0594V14.2447V11.1509V10.7347C123.292 8.94234 124.433 7.34887 126.13 6.77153L126.475 6.65432C126.681 6.58418 126.897 6.54839 127.115 6.54839C127.934 6.54839 128.669 6.04632 128.966 5.28364L129.195 4.69667C129.673 3.38423 130.697 2.34395 132.002 1.8457L132.565 1.63074C132.89 1.50654 133.236 1.44287 133.584 1.44287C135.161 1.44287 136.439 2.72134 136.439 4.29841Z" fill="#131313"/>
<path d="M33.3498 1.44287H33.8418C35.4562 1.44287 36.765 2.75165 36.765 4.36612L36.8192 20.9853V24.1251L36.8282 24.3932C36.8836 26.0548 38.2467 27.3732 39.9092 27.3732C41.7355 27.3732 43.2161 28.8537 43.2161 30.68V31.6042C43.2161 32.8552 42.2019 33.8693 40.951 33.8693H39.9092H39.8443C37.9852 33.8693 36.3139 32.7356 35.6266 31.0081L35.3522 30.499C34.9051 29.6694 34.1971 29.0104 33.3377 28.6238L33.222 28.5776C31.4004 27.8503 30.2056 26.0866 30.2056 24.1251V4.36612C30.2056 2.75165 31.5143 1.44287 33.1288 1.44287H33.3498Z" fill="#131313"/>
<path fill-rule="evenodd" clip-rule="evenodd" d="M59.6448 6.16788L59.9223 6.03269C60.8421 5.58462 61.5777 4.83102 62.0034 3.90067C62.7221 2.33003 64.2908 1.32275 66.018 1.32275L73.3591 1.32275C75.1377 1.32275 76.7394 2.39889 77.4116 4.04547C77.8722 5.17381 78.7824 6.05901 79.9232 6.48803L79.9826 6.51039C81.7457 7.17345 82.9132 8.85985 82.9132 10.7435V23.958C82.9132 25.7536 81.6823 27.3151 79.9364 27.7344C78.5332 28.0714 77.4325 29.1587 77.0783 30.5576L77.0625 30.6204C76.6141 32.3913 75.0205 33.6318 73.1936 33.6318H66.4278C64.4865 33.6318 62.7594 32.399 62.1286 30.5631L61.988 30.1539C61.5858 28.9836 60.6294 28.0888 59.4348 27.7654C57.8085 27.3252 56.6792 25.8495 56.6792 24.1646V10.9112C56.6792 8.89308 57.8304 7.05172 59.6448 6.16788ZM70.1097 7.69238C66.5057 7.69238 63.5841 10.614 63.5841 14.218V21.0651C63.5841 24.6691 66.5057 27.5907 70.1097 27.5907C73.7137 27.5907 76.6353 24.6691 76.6353 21.0651V14.218C76.6353 10.614 73.7137 7.69238 70.1097 7.69238Z" fill="#131313"/>
<path d="M0.210938 30.3883L0.210938 30.0478L0.210938 23.7693V23.5339C0.210938 21.8723 1.55793 20.5253 3.21953 20.5253H3.45602C5.04531 20.5253 6.33369 19.237 6.33369 17.6477C6.33369 15.885 7.79074 14.4561 9.55342 14.4561H9.63432C11.397 14.4561 12.8259 15.885 12.8259 17.6477C12.8259 19.3237 11.4673 20.6823 9.79128 20.6823H9.55342H9.42066C7.71578 20.6823 6.33369 22.0644 6.33369 23.7693V30.0478V30.1771C6.33369 31.9262 4.91581 33.3441 3.16675 33.3441C1.5343 33.3441 0.210938 32.0207 0.210938 30.3883Z" fill="#131313"/>
<path d="M0.321777 21.7468L0.321777 16.6514L0.321777 10.3728V10.1375C0.321777 8.47586 1.66877 7.12886 3.33037 7.12886H3.56685C5.15615 7.12886 6.44453 5.84048 6.44453 4.25118C6.44453 2.4885 7.90158 1.05957 9.66426 1.05957H9.74516C11.5078 1.05957 12.9368 2.4885 12.9368 4.25118C12.9368 5.92717 11.5781 7.28582 9.90212 7.28582H9.66426H9.54285C7.79043 7.28582 6.32942 8.62679 6.17954 10.3728V13.5121V16.6514L6.17954 21.8007C6.17954 23.4034 4.8803 24.7026 3.27759 24.7026C1.64514 24.7026 0.321777 23.3792 0.321777 21.7468Z" fill="#131313"/>
</svg>
